<svg width="127" height="48" viewBox="0 0 127 48" fill="none" xmlns="http://www.w3.org/2000/svg">
<path d="M51.4668 11.3145C51.4668 11.1254 51.5929 10.9993 51.782 10.9993H55.9107C56.0998 10.9993 56.2258 11.1254 56.2258 11.3145V32.6828C56.2258 32.8719 56.0998 32.998 55.9107 32.998H51.782C51.5929 32.998 51.4668 32.8719 51.4668 32.6828V11.3145ZM60.4176 11.3145C60.4176 11.1254 60.5436 10.9993 60.7327 10.9993H64.8614C65.0505 10.9993 65.1766 11.1254 65.1766 11.3145V20.8325L72.4885 11.2829C72.6461 11.0623 72.7721 10.9993 73.0243 10.9993H77.7518C77.9409 10.9993 78.0354 11.2199 77.8778 11.409L71.1963 19.761L78.4767 32.6198C78.6027 32.8404 78.5082 32.998 78.2876 32.998H73.5285C73.2764 32.998 73.1818 32.935 73.0558 32.7143L68.0761 23.4484L65.2081 27.0728V32.6828C65.2081 32.8719 65.082 32.998 64.8929 32.998H60.7642C60.5751 32.998 60.4491 32.8719 60.4491 32.6828V11.3145H60.4176ZM81.0295 24.8982V11.3145C81.0295 11.1254 81.1556 10.9993 81.3447 10.9993H85.4734C85.6625 10.9993 85.7886 11.1254 85.7886 11.3145V25.0558C85.7886 27.6717 87.2383 29.153 89.476 29.153C91.6822 29.153 93.132 27.6717 93.132 25.0558V11.3145C93.132 11.1254 93.258 10.9993 93.4471 10.9993H97.5443C97.7334 10.9993 97.8595 11.1254 97.8595 11.3145V24.9297C97.8595 30.4136 94.3611 33.3762 89.4445 33.3762C84.5279 33.3447 81.0295 30.3821 81.0295 24.8982ZM100.98 30.3506C100.854 30.2245 100.791 30.0039 100.948 29.7833L103.406 26.9468C103.532 26.7892 103.722 26.7892 103.879 26.9153C105.329 28.0814 107.315 29.1845 109.647 29.1845C111.947 29.1845 113.24 28.1129 113.24 26.5686C113.24 25.2764 112.452 24.457 109.836 24.1103L108.67 23.9527C104.194 23.3224 101.705 21.2422 101.705 17.3342C101.705 13.3 104.762 10.6211 109.521 10.6211C112.452 10.6211 115.162 11.5036 116.99 12.9218C117.179 13.0479 117.211 13.174 117.053 13.3946L115.068 16.3256C114.942 16.4832 114.784 16.5147 114.626 16.4202C112.924 15.3171 111.317 14.7498 109.521 14.7498C107.567 14.7498 106.558 15.7583 106.558 17.1451C106.558 18.4057 107.472 19.2252 109.993 19.5719L111.16 19.7294C115.698 20.3598 118.093 22.4084 118.093 26.411C118.093 30.3821 115.131 33.3447 109.458 33.3447C106.022 33.3447 102.682 31.9895 100.98 30.3506ZM121.308 11.3145C121.308 11.1254 121.434 10.9993 121.623 10.9993H125.752C125.941 10.9993 126.067 11.1254 126.067 11.3145V32.6828C126.067 32.8719 125.941 32.998 125.752 32.998H121.623C121.434 32.998 121.308 32.8719 121.308 32.6828V11.3145Z" fill="#232320"/>
<path d="M90.0747 41.1921C89.8856 41.2866 89.7281 41.4757 89.602 41.7909L88.2153 45.1317L86.8285 41.7909C86.6394 41.3181 86.2297 41.0975 85.5678 41.0975H84.2441L87.2067 47.4954C87.3013 47.7476 87.6164 47.8736 88.1207 47.8736C88.625 47.8736 88.9086 47.7476 89.0347 47.4954L91.8712 41.0975H90.7996C90.4845 41.066 90.2638 41.129 90.0747 41.1921ZM122.569 41.1921H120.551L120.93 42.4212H122.569C123.419 42.4212 123.924 42.9885 123.924 43.7764H122.695C121.056 43.7764 119.764 44.0601 119.764 45.825C119.764 46.1402 119.827 46.3923 119.921 46.6445H118.345V42.3267C118.345 41.6333 117.936 41.2551 117.085 41.2551H113.24V40.4042C113.24 39.6793 112.798 39.3011 111.947 39.3011H111.191V41.2551H110.466L109.993 42.4527H111.159V45.3838C111.159 45.9196 111.222 46.3608 111.349 46.7075L109.079 46.676V44.2492C109.079 42.2636 107.913 41.2866 105.581 41.2866H103.564L103.942 42.5158H105.581C106.432 42.5158 106.936 43.0831 106.936 43.871H105.802C104.163 43.871 102.871 44.1546 102.871 45.9196C102.871 46.2348 102.934 46.4869 103.028 46.739H101.578V39.112C101.578 38.3871 101.169 38.0089 100.286 38.0089H99.5298V46.739H95.0544C94.2034 46.739 93.6361 46.0141 93.6361 45.1632V44.4068C93.6361 43.9025 93.6992 43.4928 93.8568 43.1461C94.0459 42.6418 94.361 42.4212 94.7707 42.4212H94.9598C95.6532 42.4212 96.0314 42.957 96.0944 44.0601H94.6447L94.235 45.1632H97.9224C97.9854 44.8165 98.0485 44.5329 98.0485 44.2807C98.0485 42.2636 97.0084 41.2236 94.9914 41.2236C92.9113 41.2236 91.6191 42.2952 91.6191 44.4068V44.848C91.6191 47.0227 93.0373 47.9682 95.1174 47.9682H106.716L106.306 46.8021H106.085C105.392 46.8021 104.982 46.7075 104.982 45.9826C104.982 45.1632 105.455 45.1002 106.243 45.1002H107.188V46.8966C107.188 47.653 107.598 47.9997 108.449 47.9997H115.414L115.005 46.7705H114.311C113.523 46.7705 113.429 46.4869 113.429 45.6675V42.5788H116.391V46.7075C116.391 47.4324 116.832 47.8106 117.683 47.8106H123.735L123.325 46.6445H123.104C122.411 46.6445 122.001 46.5499 122.001 45.825C122.001 45.0056 122.474 44.9426 123.262 44.9426H124.207V46.739C124.207 47.4954 124.617 47.8421 125.468 47.8421H126.256V44.1862C126.067 42.1691 124.901 41.1921 122.569 41.1921ZM117.368 39.9944H118.377V38.8283C118.377 38.261 117.999 37.8828 117.305 37.8828H116.265V39.0174C116.297 39.6162 116.675 39.9944 117.368 39.9944Z" fill="#B8B5B1"/>
<path d="M32.9656 14.6865C37.4725 14.9386 41.223 15.3168 43.1771 15.9156C42.2316 12.5748 40.4982 9.58073 38.1974 7.09091C37.9768 7.02788 37.7562 6.99636 37.5356 6.96484C32.6505 11.0305 21.0838 21.2419 13.1416 28.5853C7.02734 28.2702 1.38584 27.3877 0.566406 26.4107C1.22826 29.6569 2.615 32.651 4.53752 35.2039C5.64061 35.6451 7.02734 36.0233 8.57167 36.3385C13.3937 32.2728 24.9604 22.0614 32.9656 14.6865Z" fill="#009938"/>
<path d="M43.7138 25.6229C43.903 24.4568 44.029 23.2276 44.029 21.9985C44.029 20.5172 43.8714 19.0359 43.5878 17.6492C42.5792 17.397 40.8458 17.1764 38.6712 16.9873C32.4939 23.8895 20.4545 34.353 14.1196 38.5133C10.9994 38.1666 8.19445 37.6623 5.98828 36.9689C7.87929 38.986 10.1485 40.6564 12.6698 41.854C16.8931 39.963 25.3081 34.0694 33.0297 26.5999C37.9463 26.4423 41.9804 26.0957 43.7138 25.6229ZM15.0966 43.2723C15.3488 43.2723 15.6009 43.3038 15.853 43.3038C16.3888 43.3353 16.5464 43.5244 17.0507 43.5244H17.2398C17.3974 43.5244 17.5865 43.5559 17.7756 43.5559C17.2713 43.4614 16.7355 43.3353 16.2312 43.1777C15.8215 43.2408 15.4118 43.2723 15.0966 43.2723Z" fill="#009938"/>
<path d="M38.7344 28.1126C32.1158 35.7712 21.148 42.3267 16.2314 43.1776C16.7357 43.3037 17.2399 43.4297 17.7757 43.5558C20.9589 43.4928 27.2938 41.066 32.3049 37.1264C34.7633 36.8743 37.0325 36.4961 38.955 36.0233C41.0351 33.5335 42.5794 30.5394 43.3673 27.2932C42.3588 27.6083 40.7514 27.892 38.7344 28.1126ZM37.7573 37.3785C33.1559 40.7193 26.4113 43.3982 22.8499 43.9655C28.6805 43.7449 33.9123 41.2551 37.7573 37.3785ZM19.6037 0.157227C14.7501 0.693012 10.4008 2.80464 7.0285 5.98783C7.56428 5.83025 8.13158 5.70418 8.7304 5.57811C11.9451 2.77312 16.1999 0.819079 19.6037 0.157227ZM27.1992 0.629978C26.5374 0.472394 25.8755 0.346327 25.2137 0.251777C22.2196 0.850596 18.0909 2.86767 13.8992 6.14541C10.5269 6.4921 7.53276 7.02788 5.32659 7.78429C3.0889 10.4002 1.48155 13.5834 0.662109 17.0502C1.35548 16.3253 4.31805 15.4744 7.46973 15.1277C13.4264 8.28855 22.125 2.30037 27.1992 0.629978Z" fill="#009938"/>
<path d="M2.48902 25.686C3.49756 25.9381 5.19947 26.1587 7.34261 26.3163C13.5199 19.4141 25.5593 8.91904 31.9257 4.75882C33.5015 4.91641 35.0143 5.13702 36.4326 5.42067C35.0143 4.19152 33.47 3.15147 31.7681 2.33203C27.2297 4.82186 19.8548 10.1482 13.0471 16.7352C7.50019 16.9558 3.08784 17.334 1.82717 17.9328C1.19684 18.185 0.661052 18.5001 0.345884 18.7208C0.1883 19.7923 0.09375 20.9269 0.09375 22.0615C0.09375 22.9755 0.156784 23.8895 0.282851 24.8035C1.07077 25.3078 2.48902 25.686 2.48902 25.686Z" fill="#009938"/>
<path opacity="0.44" d="M44.1235 22.0617C44.1235 34.2272 34.2587 44.1235 22.0617 44.1235C9.89627 44.1235 0 34.2587 0 22.0617C0 9.89627 9.86475 0 22.0617 0C34.2272 0 44.1235 9.86475 44.1235 22.0617Z" fill="url(#paint0_radial_1370_833)"/>
<defs>
<radialGradient id="paint0_radial_1370_833" cx="0" cy="0" r="1" gradientUnits="userSpaceOnUse" gradientTransform="translate(22.0607 22.059) scale(22.0515)">
<stop stop-color="white"/>
<stop offset="0.853" stop-color="white" stop-opacity="0.487"/>
<stop offset="0.997" stop-color="white" stop-opacity="0.4"/>
</radialGradient>
</defs>
</svg>